# xmcd
#
# Track frame offsets: 
#        150
#        25352
#        49443
#        69368
#        88133
#        108701
#        118963
#        138612
#
# Disc length: 2108 seconds
#
# Revision: 0
# Processed by: cddbd v1.5.2PL0 Copyright (c) Steve Scherf et al.
# Submitted via: ExactAudioCopyFreeDBPlugin 1.0
#
DISCID=7c083a08
DTITLE=MUNETAKA HIGUCHI - FREE WORLD II
DYEAR=2012
DGENRE=METAL
TTITLE0=MACRO MEDIA 2
TTITLE1=MACROCOSM
TTITLE2=DANIEL'S 7
TTITLE3=HALO ⇔ HELLO
TTITLE4=M6
TTITLE5=MU ROCK
TTITLE6=INTO THE OCEAN
TTITLE7=ZERO
EXTD=
EXTT0=
EXTT1=
EXTT2=
EXTT3=
EXTT4=
EXTT5=
EXTT6=
EXTT7=
PLAYORDER=
